<?xml version="1.0" encoding="utf-8"?>
<!-- Generator: Adobe Illustrator 18.1.1, SVG Export Plug-In . SVG Version: 6.00 Build 0)  -->
<svg version="1.1" id="Calque_1" xmlns="http://www.w3.org/2000/svg" xmlns:xlink="http://www.w3.org/1999/xlink" x="0px" y="0px"
	 viewBox="0 0 305 10" enable-background="new 0 0 305 10" xml:space="preserve">
<g>
	<g>
		<path fill="#ffffff" d="M0,9c-1.1,0-2.1-0.4-2.8-1.2C-3.6,7.1-4,6-4,5c0-1.1,0.4-2.1,1.2-2.8C-2.1,1.4-1.1,1,0,1
			c1.1,0,2.1,0.4,2.8,1.2C3.6,2.9,4,3.9,4,5c0,1.1-0.4,2.1-1.2,2.8C2.1,8.6,1,9,0,9z"/>
	</g>
	<g>
		<path fill="#ffffff" d="M21,5c0-2.2,1.8-4,4-4l0,0c2.2,0,4,1.8,4,4l0,0c0,2.2-1.8,4-4,4l0,0C22.8,9,21,7.2,21,5z M9,5
			c0-2.2,1.8-4,4-4l0,0c2.2,0,4,1.8,4,4l0,0c0,2.2-1.8,4-4,4l0,0C10.8,9,9,7.2,9,5z"/>
	</g>
	<g>
		<path fill="#ffffff" d="M286,5c0-2.2,1.8-4,4-4l0,0c2.2,0,4,1.8,4,4l0,0c0,2.2-1.8,4-4,4l0,0C287.8,9,286,7.2,286,5z M274,5
			c0-2.2,1.8-4,4-4l0,0c2.2,0,4,1.8,4,4l0,0c0,2.2-1.8,4-4,4l0,0C275.8,9,274,7.2,274,5z M262,5c0-2.2,1.8-4,4-4l0,0
			c2.2,0,4,1.8,4,4l0,0c0,2.2-1.8,4-4,4l0,0C263.8,9,262,7.2,262,5z M250,5c0-2.2,1.8-4,4-4l0,0c2.2,0,4,1.8,4,4l0,0
			c0,2.2-1.8,4-4,4l0,0C251.8,9,250,7.2,250,5z M238,5c0-2.2,1.8-4,4-4l0,0c2.2,0,4,1.8,4,4l0,0c0,2.2-1.8,4-4,4l0,0
			C239.8,9,238,7.2,238,5z M226,5c0-2.2,1.8-4,4-4l0,0c2.2,0,4,1.8,4,4l0,0c0,2.2-1.8,4-4,4l0,0C227.8,9,226,7.2,226,5z M214,5
			c0-2.2,1.8-4,4-4l0,0c2.2,0,4,1.8,4,4l0,0c0,2.2-1.8,4-4,4l0,0C215.8,9,214,7.2,214,5z M202,5c0-2.2,1.8-4,4-4l0,0
			c2.2,0,4,1.8,4,4l0,0c0,2.2-1.8,4-4,4l0,0C203.8,9,202,7.2,202,5z M190,5c0-2.2,1.8-4,4-4l0,0c2.2,0,4,1.8,4,4l0,0
			c0,2.2-1.8,4-4,4l0,0C191.8,9,190,7.2,190,5z M178,5c0-2.2,1.8-4,4-4l0,0c2.2,0,4,1.8,4,4l0,0c0,2.2-1.8,4-4,4l0,0
			C179.8,9,178,7.2,178,5z M166,5c0-2.2,1.8-4,4-4l0,0c2.2,0,4,1.8,4,4l0,0c0,2.2-1.8,4-4,4l0,0C167.8,9,166,7.2,166,5z M154,5
			c0-2.2,1.8-4,4-4l0,0c2.2,0,4,1.8,4,4l0,0c0,2.2-1.8,4-4,4l0,0C155.8,9,154,7.2,154,5z M142,5c0-2.2,1.8-4,4-4l0,0
			c2.2,0,4,1.8,4,4l0,0c0,2.2-1.8,4-4,4l0,0C143.8,9,142,7.2,142,5z M130,5c0-2.2,1.8-4,4-4l0,0c2.2,0,4,1.8,4,4l0,0
			c0,2.2-1.8,4-4,4l0,0C131.8,9,130,7.2,130,5z M118,5c0-2.2,1.8-4,4-4l0,0c2.2,0,4,1.8,4,4l0,0c0,2.2-1.8,4-4,4l0,0
			C119.8,9,118,7.2,118,5z M106,5c0-2.2,1.8-4,4-4l0,0c2.2,0,4,1.8,4,4l0,0c0,2.2-1.8,4-4,4l0,0C107.8,9,106,7.2,106,5z M94,5
			c0-2.2,1.8-4,4-4l0,0c2.2,0,4,1.8,4,4l0,0c0,2.2-1.8,4-4,4l0,0C95.8,9,94,7.2,94,5z M82,5c0-2.2,1.8-4,4-4l0,0c2.2,0,4,1.8,4,4
			l0,0c0,2.2-1.8,4-4,4l0,0C83.8,9,82,7.2,82,5z M70,5c0-2.2,1.8-4,4-4l0,0c2.2,0,4,1.8,4,4l0,0c0,2.2-1.8,4-4,4l0,0
			C71.8,9,70,7.2,70,5z M58,5c0-2.2,1.8-4,4-4l0,0c2.2,0,4,1.8,4,4l0,0c0,2.2-1.8,4-4,4l0,0C59.8,9,58,7.2,58,5z M46,5
			c0-2.2,1.8-4,4-4l0,0c2.2,0,4,1.8,4,4l0,0c0,2.2-1.8,4-4,4l0,0C47.8,9,46,7.2,46,5z M34,5c0-2.2,1.8-4,4-4l0,0c2.2,0,4,1.8,4,4
			l0,0c0,2.2-1.8,4-4,4l0,0C35.8,9,34,7.2,34,5z"/>
	</g>
	<g>
		<path fill="#ffffff" d="M302,9c-1,0-2.1-0.4-2.8-1.2C298.4,7.1,298,6,298,5c0-1.1,0.4-2.1,1.2-2.8C299.9,1.4,301,1,302,1
			s2.1,0.4,2.8,1.2c0.7,0.8,1.2,1.8,1.2,2.8c0,1-0.4,2.1-1.2,2.8C304.1,8.6,303,9,302,9z"/>
	</g>
</g>
</svg>
