<?xml version="1.0" encoding="utf-8"?>
<!-- Generator: Adobe Illustrator 18.1.1, SVG Export Plug-In . SVG Version: 6.00 Build 0)  -->
<svg version="1.1" xmlns="http://www.w3.org/2000/svg" xmlns:xlink="http://www.w3.org/1999/xlink" x="0px" y="0px"
	 viewBox="0 0 920 85" preserveAspectRatio="xMinYMin meet">
<g id="bons_plans">
	<path fill="#686868" d="M483.7,26.9c0-0.3-0.1-0.5-0.3-0.7l-5.8-5.8c-0.2-0.2-0.4-0.3-0.7-0.3l-9.1-0.2c-0.3,0-0.5,0.1-0.7,0.3
		l-3.9,3.9c-4-2.7-5.6-5.1-5.4-5.6c0,0,0.2-0.2,0.8-0.2c1.4,0,3.6,0.7,5.9,1.9l1.5-1.5c-2.8-1.5-5.6-2.4-7.4-2.4
		c-1.5,0-2.2,0.6-2.5,1.1c-0.5,0.8-0.6,2.2,1.5,4.5c1.1,1.2,2.5,2.4,4.2,3.6l-13,13c-0.2,0.2-0.3,0.4-0.3,0.7c0,0.3,0.1,0.5,0.3,0.7
		l15.1,15.1c0.2,0.2,0.4,0.3,0.7,0.3c0.3,0,0.5-0.1,0.7-0.3l18.4-18.4c0.2-0.2,0.3-0.5,0.3-0.7L483.7,26.9z M464.5,53l-13.7-13.7
		l12.7-12.7c3,1.8,6,2.9,8.1,3.1c0.2,0.6,0.5,1.1,0.9,1.6c0.7,0.7,1.6,1.1,2.6,1.1c1,0,1.9-0.4,2.6-1.1c1.4-1.4,1.4-3.8,0-5.2
		c-0.7-0.7-1.6-1.1-2.6-1.1c-1,0-1.9,0.4-2.6,1.1c-0.5,0.5-0.8,1-1,1.7c-1.7-0.2-4.1-1.2-6.6-2.6l3.2-3.2l8.3,0.1l5.3,5.3l0.1,8.3
		L464.5,53z M474.7,28.7c0.3-0.5,0.3-1,0.2-1.6c0.1,0,0.1,0,0.2,0c0.5,0,0.9,0.2,1.2,0.5c0.7,0.7,0.7,1.7,0,2.4
		c-0.6,0.6-1.8,0.6-2.4,0c-0.1-0.1-0.2-0.2-0.3-0.4C474.1,29.3,474.5,29,474.7,28.7"/>
	<path fill="#686868" d="M464.7,46.1c-1-0.2-1.9-0.7-2.6-1.4c-1.5-1.5-1.9-3.7-1.1-5.5l2.7,2.7c0.3,0.3,0.7,0.3,1,0
		c0.3-0.3,0.3-0.7,0-1l-2.9-2.9c0.1-0.2,0.2-0.3,0.4-0.4c0.1-0.1,0.3-0.3,0.4-0.4l3.7,3.7c0.3,0.3,0.7,0.3,1,0c0.3-0.3,0.3-0.7,0-1
		l-3.5-3.5c1.8-0.8,4-0.4,5.5,1.1c0.7,0.7,1.2,1.6,1.4,2.6c0.1,0.4,0.4,0.6,0.8,0.5c0.4-0.1,0.6-0.4,0.5-0.8
		c-0.2-1.3-0.9-2.4-1.8-3.4c-2-2-5.1-2.4-7.5-1.2l-1.2-1.2c-0.3-0.3-0.7-0.3-1,0c-0.3,0.3-0.3,0.7,0,1l1,1c-0.1,0.1-0.3,0.3-0.4,0.4
		c-0.1,0.1-0.3,0.3-0.4,0.4l-1-1c-0.3-0.3-0.7-0.3-1,0c-0.3,0.3-0.3,0.7,0,1l1.2,1.2c-1.3,2.4-0.9,5.5,1.2,7.5
		c0.9,0.9,2.1,1.5,3.4,1.8c0.4,0.1,0.7-0.2,0.8-0.5C465.4,46.5,465.1,46.2,464.7,46.1"/>
</g>
<g id="line">
	<path fill="none" stroke="#686868" stroke-width="2" stroke-miterlimit="10" d="M496.7,29.5c-2-15.2-15.1-27-30.8-27
		c-17.2,0-31.1,13.9-31.1,31.1c0,0.6,0,0.9,0.1,1.9c-10,0-434.8,0-434.8,0"/>
	<path fill="none" stroke="#686868" stroke-width="2" stroke-miterlimit="10" d="M436,42.5c3.8,12.9,15.7,22.3,29.8,22.3
		c16.6,0,30.1-13.2,31.1-29.2c0.6,0,1.1,0,1.1,0h422"/>
</g>
</svg>
